<mxfile host="app.diagrams.net" modified="2022-01-11T06:42:41.035Z" agent="5.0 (Windows NT 10.0; Win64; x64) AppleWebKit/537.36 (KHTML, like Gecko) Chrome/94.0.4606.61 Safari/537.36" etag="jiL5y5Yfqjmlk_Cu1Dxv" version="15.8.8" type="github">
  <diagram id="C5RBs43oDa-KdzZeNtuy" name="Page-1">
    <mxGraphModel dx="484" dy="753" grid="1" gridSize="20" guides="1" tooltips="1" connect="0" arrows="1" fold="1" page="1" pageScale="1" pageWidth="827" pageHeight="1169" math="0" shadow="0">
      <root>
        <mxCell id="WIyWlLk6GJQsqaUBKTNV-0" />
        <mxCell id="WIyWlLk6GJQsqaUBKTNV-1" parent="WIyWlLk6GJQsqaUBKTNV-0" />
        <mxCell id="W6_8V5uqOPWW3XMU8aSm-54" value="" style="curved=1;endArrow=classic;html=1;rounded=0;labelBorderColor=none;fontSize=15;fontColor=#000000;strokeColor=#001DBC;entryX=0.317;entryY=-0.017;entryDx=0;entryDy=0;entryPerimeter=0;fillColor=#0050ef;" edge="1" parent="WIyWlLk6GJQsqaUBKTNV-1" target="W6_8V5uqOPWW3XMU8aSm-34">
          <mxGeometry width="50" height="50" relative="1" as="geometry">
            <mxPoint x="360" y="795" as="sourcePoint" />
            <mxPoint x="500" y="795" as="targetPoint" />
            <Array as="points">
              <mxPoint x="420" y="780" />
              <mxPoint x="500" y="820" />
            </Array>
          </mxGeometry>
        </mxCell>
        <mxCell id="W6_8V5uqOPWW3XMU8aSm-42" style="edgeStyle=orthogonalEdgeStyle;rounded=1;orthogonalLoop=1;jettySize=auto;html=1;entryX=0.5;entryY=1.033;entryDx=0;entryDy=0;entryPerimeter=0;labelBorderColor=none;fontSize=20;fontColor=#000000;endArrow=open;endFill=0;strokeColor=#7EA6E0;" edge="1" parent="WIyWlLk6GJQsqaUBKTNV-1" source="W6_8V5uqOPWW3XMU8aSm-33" target="W6_8V5uqOPWW3XMU8aSm-20">
          <mxGeometry relative="1" as="geometry" />
        </mxCell>
        <mxCell id="W6_8V5uqOPWW3XMU8aSm-51" value="" style="endArrow=none;html=1;rounded=0;labelBorderColor=none;fontSize=15;fontColor=#000000;strokeColor=#000000;" edge="1" parent="WIyWlLk6GJQsqaUBKTNV-1">
          <mxGeometry width="50" height="50" relative="1" as="geometry">
            <mxPoint x="131" y="859.5" as="sourcePoint" />
            <mxPoint x="827" y="859.5" as="targetPoint" />
          </mxGeometry>
        </mxCell>
        <mxCell id="W6_8V5uqOPWW3XMU8aSm-44" value="DMA拷贝" style="rounded=0;whiteSpace=wrap;html=1;labelBorderColor=none;fontSize=15;fontColor=#ffffff;strokeColor=#006EAF;fillColor=#1ba1e2;" vertex="1" parent="WIyWlLk6GJQsqaUBKTNV-1">
          <mxGeometry x="240" y="840" width="120" height="40" as="geometry" />
        </mxCell>
        <mxCell id="W6_8V5uqOPWW3XMU8aSm-8" value="&lt;div style=&quot;font-size: 16px;&quot;&gt;&lt;span style=&quot;font-size: 16px;&quot;&gt;进程&lt;/span&gt;&lt;/div&gt;" style="rounded=1;whiteSpace=wrap;html=1;fillColor=#fff2cc;strokeColor=#d6b656;align=left;fontSize=16;fontStyle=1;labelPosition=center;verticalLabelPosition=middle;verticalAlign=middle;spacingLeft=30;" vertex="1" parent="WIyWlLk6GJQsqaUBKTNV-1">
          <mxGeometry x="240" y="530" width="380" height="110" as="geometry" />
        </mxCell>
        <mxCell id="W6_8V5uqOPWW3XMU8aSm-9" value="用户缓冲区" style="rounded=1;whiteSpace=wrap;html=1;" vertex="1" parent="WIyWlLk6GJQsqaUBKTNV-1">
          <mxGeometry x="354" y="555" width="120" height="60" as="geometry" />
        </mxCell>
        <mxCell id="W6_8V5uqOPWW3XMU8aSm-12" value="" style="endArrow=none;html=1;rounded=0;fontSize=20;fontStyle=1;align=center;" edge="1" parent="WIyWlLk6GJQsqaUBKTNV-1">
          <mxGeometry width="50" height="50" relative="1" as="geometry">
            <mxPoint x="160" y="680" as="sourcePoint" />
            <mxPoint x="866" y="680" as="targetPoint" />
          </mxGeometry>
        </mxCell>
        <mxCell id="W6_8V5uqOPWW3XMU8aSm-16" value="用户态" style="text;html=1;strokeColor=none;fillColor=none;align=center;verticalAlign=middle;whiteSpace=wrap;rounded=0;fontSize=20;fontStyle=1" vertex="1" parent="WIyWlLk6GJQsqaUBKTNV-1">
          <mxGeometry x="140" y="570" width="100" height="30" as="geometry" />
        </mxCell>
        <mxCell id="W6_8V5uqOPWW3XMU8aSm-20" value="缓冲区" style="rounded=1;whiteSpace=wrap;html=1;fontSize=20;fillColor=#dae8fc;strokeColor=#6c8ebf;" vertex="1" parent="WIyWlLk6GJQsqaUBKTNV-1">
          <mxGeometry x="240" y="740" width="120" height="60" as="geometry" />
        </mxCell>
        <mxCell id="W6_8V5uqOPWW3XMU8aSm-21" value="socket缓冲区" style="rounded=1;whiteSpace=wrap;html=1;fontSize=20;fillColor=#dae8fc;strokeColor=#6c8ebf;" vertex="1" parent="WIyWlLk6GJQsqaUBKTNV-1">
          <mxGeometry x="520" y="740" width="120" height="60" as="geometry" />
        </mxCell>
        <mxCell id="W6_8V5uqOPWW3XMU8aSm-24" value="" style="endArrow=classic;html=1;rounded=0;dashed=1;labelBorderColor=none;fontSize=20;fontColor=#FF0000;strokeColor=#FF0000;exitX=0.263;exitY=1;exitDx=0;exitDy=0;exitPerimeter=0;" edge="1" parent="WIyWlLk6GJQsqaUBKTNV-1" source="W6_8V5uqOPWW3XMU8aSm-8" target="W6_8V5uqOPWW3XMU8aSm-20">
          <mxGeometry relative="1" as="geometry">
            <mxPoint x="280" y="720" as="sourcePoint" />
            <mxPoint x="380" y="720" as="targetPoint" />
            <Array as="points">
              <mxPoint x="300" y="640" />
            </Array>
          </mxGeometry>
        </mxCell>
        <mxCell id="W6_8V5uqOPWW3XMU8aSm-25" value="&lt;span style=&quot;color: rgb(0 , 0 , 0)&quot;&gt;sendfile切换&lt;/span&gt;" style="edgeLabel;resizable=0;html=1;align=center;verticalAlign=middle;fontSize=20;fontColor=#FF0000;" connectable="0" vertex="1" parent="W6_8V5uqOPWW3XMU8aSm-24">
          <mxGeometry relative="1" as="geometry">
            <mxPoint y="10" as="offset" />
          </mxGeometry>
        </mxCell>
        <mxCell id="W6_8V5uqOPWW3XMU8aSm-26" value="" style="endArrow=classic;html=1;rounded=0;dashed=1;labelBorderColor=none;fontSize=20;fontColor=#FF0000;strokeColor=#FF0000;entryX=0.892;entryY=1.018;entryDx=0;entryDy=0;entryPerimeter=0;" edge="1" parent="WIyWlLk6GJQsqaUBKTNV-1" source="W6_8V5uqOPWW3XMU8aSm-21" target="W6_8V5uqOPWW3XMU8aSm-8">
          <mxGeometry relative="1" as="geometry">
            <mxPoint x="520" y="720" as="sourcePoint" />
            <mxPoint x="520" y="620" as="targetPoint" />
          </mxGeometry>
        </mxCell>
        <mxCell id="W6_8V5uqOPWW3XMU8aSm-27" value="&lt;span style=&quot;color: rgb(0 , 0 , 0)&quot;&gt;切换2&lt;/span&gt;" style="edgeLabel;resizable=0;html=1;align=center;verticalAlign=middle;fontSize=20;fontColor=#FF0000;" connectable="0" vertex="1" parent="W6_8V5uqOPWW3XMU8aSm-26">
          <mxGeometry relative="1" as="geometry">
            <mxPoint x="1" y="-13" as="offset" />
          </mxGeometry>
        </mxCell>
        <mxCell id="W6_8V5uqOPWW3XMU8aSm-30" value="" style="endArrow=classic;html=1;rounded=0;dashed=1;labelBorderColor=none;fontSize=20;fontColor=#FF0000;strokeColor=#2D7600;entryX=-0.017;entryY=0.5;entryDx=0;entryDy=0;entryPerimeter=0;fillColor=#60a917;" edge="1" parent="WIyWlLk6GJQsqaUBKTNV-1" target="W6_8V5uqOPWW3XMU8aSm-21">
          <mxGeometry relative="1" as="geometry">
            <mxPoint x="360" y="770" as="sourcePoint" />
            <mxPoint x="480" y="769.5" as="targetPoint" />
          </mxGeometry>
        </mxCell>
        <mxCell id="W6_8V5uqOPWW3XMU8aSm-32" value="描述符和数据长度" style="rounded=0;whiteSpace=wrap;html=1;fontSize=12;labelBorderColor=none;strokeColor=#2D7600;fillColor=#60a917;fontColor=#ffffff;" vertex="1" parent="WIyWlLk6GJQsqaUBKTNV-1">
          <mxGeometry x="380" y="720" width="120" height="40" as="geometry" />
        </mxCell>
        <mxCell id="W6_8V5uqOPWW3XMU8aSm-33" value="磁盘文件" style="rounded=1;whiteSpace=wrap;html=1;labelBorderColor=none;fontSize=20;fontColor=#ffffff;strokeColor=#2D7600;fillColor=#60a917;" vertex="1" parent="WIyWlLk6GJQsqaUBKTNV-1">
          <mxGeometry x="240" y="940" width="120" height="60" as="geometry" />
        </mxCell>
        <mxCell id="W6_8V5uqOPWW3XMU8aSm-34" value="&lt;font style=&quot;font-size: 20px&quot;&gt;网卡&lt;/font&gt;" style="rounded=1;whiteSpace=wrap;html=1;labelBorderColor=none;fontSize=12;fontColor=#ffffff;strokeColor=#2D7600;fillColor=#60a917;" vertex="1" parent="WIyWlLk6GJQsqaUBKTNV-1">
          <mxGeometry x="520" y="940" width="120" height="60" as="geometry" />
        </mxCell>
        <mxCell id="W6_8V5uqOPWW3XMU8aSm-35" value="内核态" style="text;html=1;strokeColor=none;fillColor=none;align=center;verticalAlign=middle;whiteSpace=wrap;rounded=0;fontSize=20;fontStyle=1" vertex="1" parent="WIyWlLk6GJQsqaUBKTNV-1">
          <mxGeometry x="140" y="755" width="100" height="30" as="geometry" />
        </mxCell>
        <mxCell id="W6_8V5uqOPWW3XMU8aSm-45" value="1" style="ellipse;whiteSpace=wrap;html=1;aspect=fixed;labelBorderColor=none;fontSize=20;fontColor=#000000;strokeColor=#97D077;fillColor=default;" vertex="1" parent="WIyWlLk6GJQsqaUBKTNV-1">
          <mxGeometry x="240" y="850" width="20" height="20" as="geometry" />
        </mxCell>
        <mxCell id="W6_8V5uqOPWW3XMU8aSm-48" value="SG-DMA拷贝" style="rounded=0;whiteSpace=wrap;html=1;labelBorderColor=none;fontSize=15;fontColor=#ffffff;strokeColor=#006EAF;fillColor=#1ba1e2;" vertex="1" parent="WIyWlLk6GJQsqaUBKTNV-1">
          <mxGeometry x="454" y="840" width="166" height="40" as="geometry" />
        </mxCell>
        <mxCell id="W6_8V5uqOPWW3XMU8aSm-50" value="2" style="ellipse;whiteSpace=wrap;html=1;aspect=fixed;labelBorderColor=none;fontSize=15;fontColor=#000000;strokeColor=#97D077;fillColor=default;" vertex="1" parent="WIyWlLk6GJQsqaUBKTNV-1">
          <mxGeometry x="454" y="845" width="30" height="30" as="geometry" />
        </mxCell>
      </root>
    </mxGraphModel>
  </diagram>
</mxfile>
